<?xml version="1.0" encoding="utf-8"?>
<!-- Generator: Adobe Illustrator 16.0.0, SVG Export Plug-In . SVG Version: 6.00 Build 0)  -->
<!DOCTYPE svg PUBLIC "-//W3C//DTD SVG 1.1//EN" "http://www.w3.org/Graphics/SVG/1.1/DTD/svg11.dtd">
<svg version="1.1" id="Layer_4" xmlns="http://www.w3.org/2000/svg" xmlns:xlink="http://www.w3.org/1999/xlink" x="0px" y="0px"
	 width="1186px" height="575.141px" viewBox="0 0 1186 575.141" style="enable-background:new 0 0 1186 575.141;"
	 xml:space="preserve">
<style type="text/css">
<![CDATA[
	.st0{fill:#7ECCFD;}
	.st1{fill:#1B95E4;}
	.st2{fill:none;stroke:#1B95E4;stroke-width:2;stroke-miterlimit:10;}
	.st3{fill:#51BBFD;}
	.st4{fill:#529FCE;}
	.st5{fill:#224D7A;}
	.st6{fill:#FF6600;}
	.st7{fill:#FFFFFF;}
	.st8{fill:#009EFF;}
	.st9{fill:#3BB3FC;}
	.st10{fill:#DD9230;}
]]>
</style>
<g>
	<g>
		<g>
			<g>
				<path class="st7" d="M302.118,125.545l0.703-0.677c17.259-16.605,39.898-25.749,63.747-25.749
					c11.043,0,21.848,1.938,32.113,5.76l7.341,2.733L382.847,50.1l71.73-28.902l-7.21-3.366C422.029,6,394.844,0.001,366.568,0.001
					c-55.804,0-108.726,24.43-145.193,67.024l-1.119,1.307l15.697,71.7L302.118,125.545z"/>
				<path class="st7" d="M637.418,191.159l24.273-24.183l4.104-74.501l-66.11-3.636l-32.394,32.271L501.94,56.191
					c-11.617-11.651-24.699-21.778-38.885-30.102l-1.467-0.86l-70.466,28.392l23.888,59.283l0.933,0.595
					c5.786,3.697,11.158,8.014,15.973,12.845l65.153,64.721l-64.829,64.586l67.369,3.707l-4.023,73.096l71.612-71.338l40.32,40.169
					l1.325-68.292l71.972,1.401L637.418,191.159z"/>
				<path class="st7" d="M668.43,160.263l34.216-34.085c17.394-17.449,40.545-27.058,65.183-27.058
					c20.436,0,39.812,6.605,56.036,19.103l0.924,0.711l62.401,0.333l0.408-76.936l-1.32-1.044C852.174,14.277,811.213,0,767.828,0
					c-51.165,0-99.203,19.917-135.255,56.075l-26.83,26.729l66.751,3.672L668.43,160.263z"/>
				<path class="st7" d="M294.923,248.836l-0.527-0.667c-12.995-16.416-19.865-36.129-19.865-57.01
					c0-17.905,5.189-35.292,15.01-50.285l4.64-7.083l-63.078,13.813L215.096,74.5l-4.524,6.382
					c-23.002,32.444-35.16,70.577-35.16,110.278c0,52.795,22.264,103.787,61.082,139.905l1.28,1.19l70.432-13.349L294.923,248.836z"
					/>
				<path class="st7" d="M826.912,262.132l-6.839,4.736c-15.431,10.683-33.496,16.329-52.245,16.329
					c-24.443,0-47.434-9.453-64.736-26.613l-15.765-15.707l-72.247-1.406l-1.321,68.027l19.453,19.383
					c36.039,35.747,83.848,55.436,134.614,55.436c41.329,0,80.707-13.046,113.877-37.724l6.408-4.767l-72.788-13.046
					L826.912,262.132z"/>
				<path class="st7" d="M899.729,52.999l-5.804-5.545l-0.41,78.207l-61.021-0.324l4.974,5.758
					c14.44,16.719,22.394,38.052,22.394,60.068c0,23.132-8.663,45.264-24.39,62.323l-0.685,0.741l-12.085,67.421l71.49,12.811
					l1.26-1.13c40.372-36.282,63.529-88.1,63.529-142.166C958.982,138.559,937.939,89.493,899.729,52.999z"/>
				<path class="st7" d="M424.711,262.513c-16.543,13.532-36.648,20.685-58.143,20.685c-20.481,0-39.896-6.634-56.145-19.187
					l-7.207-5.566l12.421,65.526l-71.96,13.64l6.069,4.7c33.786,26.173,74.183,40.006,116.823,40.006
					c44.795,0,86.694-14.979,121.17-43.313l1.174-0.966l3.999-72.68l-67.16-3.693L424.711,262.513z"/>
			</g>
			<path class="st4" d="M238.59,135.915l61.833-13.538c17.177-16.523,40.486-26.713,66.145-26.713
				c11.555,0,22.789,2.056,33.319,5.976l-21.539-53.454l67.557-27.221c-24.523-11.45-51.458-17.506-79.336-17.506
				c-57.004,0-108.115,25.576-142.566,65.816L238.59,135.915z"/>
			<path class="st4" d="M566.534,125.232l-67.043-66.599c-11.574-11.608-24.416-21.48-38.187-29.561l-65.682,26.465l22.182,55.048
				c5.904,3.773,11.46,8.202,16.549,13.306l67.2,66.754l66.273,66.215l36.394,36.257l1.235-63.65l66.823,1.301l-39.378-39.229
				L566.534,125.232z"/>
			<polygon class="st10" points="658.313,165.461 662.151,95.738 601.033,92.377 440.177,252.626 503.251,256.095 499.535,323.64 
							"/>
			<path class="st10" d="M676.136,83.213l-3.756,68.236l27.816-27.713c18.051-18.103,42.07-28.073,67.632-28.073
				c21.868,0,42.03,7.407,58.146,19.82l57.775,0.309l0.38-71.793c-32.005-25.35-72.4-40.54-116.302-40.54
				c-50.244,0-97.447,19.595-132.815,55.066l-21.334,21.254L676.136,83.213z"/>
			<path class="st4" d="M238.848,328.533l65.316-12.379l-12.48-65.841c-12.888-16.279-20.612-36.825-20.612-59.153
				c0-19.247,5.744-37.167,15.575-52.179l-58.184,12.741l-15.07-68.842c-21.709,30.622-34.524,67.971-34.524,108.279
				C178.869,245.36,201.987,294.237,238.848,328.533z"/>
			<path class="st10" d="M811.311,329.575l10.73-59.863c-15.413,10.673-34.09,16.943-54.213,16.943
				c-25.363,0-49.245-9.834-67.176-27.619l-14.781-14.726l-67.401-1.313l-1.227,63.096l18.404,18.336
				c35.391,35.102,82.332,54.433,132.181,54.433c41.859,0,80.56-13.786,111.812-37.04L811.311,329.575z"/>
			<path class="st10" d="M897.344,55.498l-0.39,73.638l-56.867-0.303c14.459,16.742,23.233,38.522,23.233,62.327
				c0,24.927-9.611,47.645-25.307,64.667l-11.298,63.023l66.424,11.903c38.266-34.388,62.386-84.219,62.386-139.595
				C955.525,137.85,933.148,89.699,897.344,55.498z"/>
			<path class="st5" d="M489.268,268.62l-62.367-3.429c-16.997,13.901-38.095,21.464-60.333,21.464
				c-21.921,0-42.123-7.441-58.258-19.904l11.367,59.975l-67.815,12.854c31.746,24.591,71.532,39.281,114.706,39.281
				c43.857,0,85.456-14.979,118.974-42.528L489.268,268.62z"/>
		</g>
		<polyline class="st2" points="0,464.932 219.5,464.932 250,434.432 250,362.432 		"/>
		<polyline class="st2" points="41,573.432 437.5,573.432 467.75,543.182 467.75,378.932 		"/>
		<polyline class="st2" points="1181.5,525.932 891.5,525.932 860.5,494.932 860.5,384.932 		"/>
		<g>
			<path class="st7" d="M280.621,82.372c-0.476,1.185-2.099,3.542-4.746,5.895c-7.228,6.426-14.721,5.619-19.563,0.169
				c-5.6-6.3-4.132-14.565,2.328-20.309c2.59-2.302,4.982-3.565,6.293-3.867l2.16,4.38c-1.375,0.459-3.208,1.378-5,2.972
				c-3.871,3.44-4.885,8.204-1.252,12.291c3.203,3.604,7.971,4.04,12.354,0.144c1.565-1.392,2.967-3.196,3.584-4.507L280.621,82.372
				z"/>
			<path class="st7" d="M300.311,56.395c3.97,6.915,1.806,14.461-5.459,18.63c-7.132,4.094-14.421,1.798-18.088-4.59
				c-3.933-6.849-1.844-14.527,5.256-18.602C289.35,47.626,296.586,49.908,300.311,56.395z M282.25,67.067
				c2.363,4.116,6.659,5.941,10.522,3.724c3.93-2.255,4.492-6.781,2.053-11.029c-2.325-4.05-6.598-6.063-10.561-3.789
				C280.302,58.247,279.867,62.918,282.25,67.067z"/>
			<path class="st7" d="M304.217,41.691c2.239-1.021,5.13-2.117,8.196-3.027c5.22-1.549,8.811-1.625,11.99-0.549
				c3.273,1.127,5.926,3.507,7.168,7.693c1.372,4.622,0.45,8.34-1.401,11.068c-2.181,3.221-6.347,5.646-11.603,7.206
				c-3.321,0.986-5.638,1.476-7.2,1.701L304.217,41.691z M315.93,59.875c0.58-0.054,1.529-0.335,2.332-0.574
				c5.971-1.693,8.844-5.793,7.191-11.361c-1.523-5.131-5.82-6.628-11.222-5.024c-1.533,0.455-2.475,0.893-2.99,1.165L315.93,59.875
				z"/>
			<path class="st7" d="M355.998,46.244l-10.583,0.924l0.503,5.75l11.835-1.033l0.427,4.879l-17.867,1.56l-2.231-25.495l17.26-1.506
				l0.427,4.879l-11.228,0.98l0.447,5.107l10.583-0.924L355.998,46.244z"/>
		</g>
		<g>
			<path class="st7" d="M462.621,69.415c1.581,1.104,3.737,2.818,6.668,5.649c2.711,2.62,4.074,4.992,4.411,7.165
				c0.335,2.065-0.292,4.469-2.111,6.354c-1.688,1.748-3.792,2.777-5.892,2.649c-2.878-0.089-5.704-1.604-8.47-4.276
				c-0.63-0.608-1.18-1.245-1.512-1.724l-6.302,6.528l-4.328-4.181L462.621,69.415z M458.907,81.926
				c0.306,0.506,0.772,1.01,1.512,1.724c2.355,2.275,4.945,2.718,6.791,0.807c1.661-1.721,1.216-3.946-1.03-6.116
				c-0.986-0.953-1.723-1.505-2.104-1.769L458.907,81.926z"/>
			<path class="st7" d="M480.563,86.554l4.297,4.265l-14.471,14.57l8.107,8.047l-3.558,3.582l-12.403-12.313L480.563,86.554z"/>
			<path class="st7" d="M487.69,120.054l-6.274,3.399l-4.54-4.506l24.136-12.09l5.756,5.714l-11.651,24.483l-4.756-4.721
				l3.221-6.431L487.69,120.054z M495.981,122.027l2.555-5.166c0.692-1.399,1.544-2.959,2.236-4.305l-0.054-0.054
				c-1.313,0.729-2.788,1.672-4.155,2.401l-5.095,2.644L495.981,122.027z"/>
			<path class="st7" d="M498.247,140.167l18.028-18.152l5.297,5.258l-2.339,10.568c-0.79,3.334-1.902,6.724-3.176,9.844l0.081,0.08
				c2.271-2.88,4.41-5.089,6.951-7.647l5.671-5.71l4,3.97l-18.029,18.152l-4.675-4.641l2.712-11.268
				c0.843-3.334,1.846-6.992,3.093-10.3l-0.135-0.081c-2.433,2.72-4.894,5.251-7.595,7.971l-5.884,5.925L498.247,140.167z"/>
		</g>
		<g>
			<path class="st7" d="M661.195,287.79c2.273-2.45,4.867-5.224,7.756-8.133l-0.081-0.08c-3.109,1.78-6.622,3.642-9.813,5.233
				l-9.682,4.831l-3.404-3.38l5.061-9.364c1.678-2.986,3.704-6.323,5.705-9.365l-0.054-0.054c-2.729,2.532-5.753,5.414-8.269,7.731
				l-7.386,6.734l-4.081-4.051l19.137-17.053l6.08,6.036l-3.966,7.775c-1.385,2.583-3.171,5.57-4.879,8.154l0.108,0.107
				c2.707-1.592,5.87-3.426,8.445-4.667l7.938-3.779l5.919,5.875l-17.083,19.091l-4.27-4.238L661.195,287.79z"/>
			<path class="st7" d="M690.883,309.82c-4.97,6.235-12.783,7-19.333,1.78c-6.431-5.125-6.977-12.747-2.385-18.508
				c4.923-6.176,12.831-7.059,19.231-1.958C695.006,296.402,695.545,303.97,690.883,309.82z M674.314,296.954
				c-2.959,3.712-3.075,8.378,0.408,11.154c3.543,2.823,7.958,1.681,11.011-2.149c2.911-3.652,3.212-8.366-0.36-11.213
				C681.8,291.898,677.296,293.212,674.314,296.954z"/>
			<path class="st7" d="M687.03,322.51l11.848-22.677l6.615,3.454l0.895,10.787c0.232,3.419,0.174,6.985-0.12,10.344l0.101,0.053
				c1.316-3.424,2.707-6.166,4.377-9.362l3.727-7.134l4.995,2.608l-11.848,22.678l-5.839-3.049l-0.745-11.566
				c-0.182-3.435-0.307-7.226-0.095-10.755l-0.152-0.037c-1.519,3.318-3.12,6.465-4.896,9.862l-3.867,7.402L687.03,322.51z"/>
			<path class="st7" d="M727.841,313.219l-8.752,24.045l-5.689-2.069l8.752-24.045L727.841,313.219z"/>
			<path class="st7" d="M735.162,320.574l-7.518-1.803l1.15-4.799l21.035,5.045l-1.151,4.798l-7.629-1.829l-4.814,20.079
				l-5.888-1.411L735.162,320.574z"/>
			<path class="st7" d="M773.615,333.355c-0.567,7.953-6.577,13.005-14.933,12.407c-8.203-0.587-12.969-6.562-12.444-13.908
				c0.562-7.878,6.582-13.081,14.747-12.497C769.417,319.96,774.147,325.894,773.615,333.355z M752.67,332.124
				c-0.338,4.734,2.208,8.646,6.651,8.964c4.52,0.323,7.514-3.116,7.862-8.002c0.332-4.658-2.089-8.714-6.646-9.04
				S753.01,327.352,752.67,332.124z"/>
			<path class="st7" d="M774.964,320.75c1.938-0.506,4.902-1.08,8.387-1.44c4.128-0.428,6.922-0.068,8.96,1.133
				c1.636,1.014,2.77,2.729,3.016,5.108c0.352,3.398-2.072,5.863-4.051,6.717l0.016,0.151c1.854,0.533,3.052,2.127,3.998,4.243
				c1.172,2.817,2.315,6.096,2.95,7.061l-6.173,0.64c-0.494-0.712-1.33-2.496-2.503-5.695c-1.123-3.09-2.384-3.799-5-3.566
				l-2.046,0.212l1.027,9.932l-5.983,0.62L774.964,320.75z M782.076,331.044l2.728-0.282c3.105-0.322,4.82-1.874,4.59-4.102
				c-0.246-2.379-2.215-3.282-4.979-2.996c-1.705,0.177-2.602,0.384-3.045,0.544L782.076,331.044z"/>
		</g>
		<g>
			<path class="st7" d="M691.145,54.16c2.017-1.409,4.662-3.01,7.513-4.459c4.853-2.468,8.371-3.192,11.691-2.708
				c3.423,0.517,6.461,2.378,8.438,6.271c2.185,4.298,1.949,8.123,0.622,11.14c-1.563,3.563-5.222,6.702-10.108,9.187
				c-3.088,1.57-5.278,2.471-6.772,2.976L691.145,54.16z M705.946,69.929c0.561-0.157,1.443-0.606,2.189-0.986
				c5.566-2.745,7.651-7.298,5.021-12.476c-2.425-4.772-6.921-5.467-11.943-2.913c-1.425,0.725-2.272,1.326-2.729,1.687
				L705.946,69.929z"/>
			<path class="st7" d="M742.92,49.296l-10.247,2.81l1.526,5.564l11.459-3.142l1.295,4.722l-17.299,4.744l-6.768-24.672
				l16.712-4.582l1.295,4.722l-10.871,2.981l1.355,4.941l10.247-2.81L742.92,49.296z"/>
			<path class="st7" d="M749.636,33.265c1.87-0.47,4.578-0.975,8.637-1.333c3.756-0.331,6.439,0.195,8.301,1.365
				c1.779,1.101,3.183,3.149,3.412,5.758c0.213,2.42-0.391,4.683-1.864,6.185c-1.955,2.116-4.951,3.256-8.782,3.593
				c-0.872,0.077-1.714,0.075-2.293,0.012l0.796,9.037l-5.994,0.528L749.636,33.265z M756.644,44.269
				c0.583,0.101,1.269,0.079,2.293-0.011c3.263-0.288,5.295-1.953,5.062-4.6c-0.209-2.382-2.181-3.504-5.292-3.23
				c-1.365,0.121-2.266,0.314-2.714,0.43L756.644,44.269z"/>
			<path class="st7" d="M778.439,31.396l6.031,0.517l-1.75,20.464l11.38,0.975l-0.431,5.031l-17.411-1.492L778.439,31.396z"/>
			<path class="st7" d="M825.313,53.248c-2.166,7.671-9.073,11.4-17.134,9.125c-7.913-2.235-11.369-9.048-9.368-16.135
				c2.146-7.598,9.095-11.474,16.972-9.249C823.916,39.285,827.346,46.052,825.313,53.248z M805.055,47.804
				c-1.289,4.566,0.411,8.912,4.697,10.122c4.36,1.231,7.988-1.531,9.318-6.243c1.269-4.493-0.28-8.954-4.677-10.195
				S806.354,43.201,805.055,47.804z"/>
			<path class="st7" d="M830.644,70.416l4.944-9.497l-1.029-17.318l6.281,3.272l-0.292,6.827c-0.1,2.088-0.103,3.414-0.249,5.179
				l0.067,0.035c1.275-1.048,2.515-1.944,4.081-3.14l5.476-4.168l6.214,3.237l-15.074,8.671l-5.05,9.699L830.644,70.416z"/>
		</g>
		<g>
			<path class="st7" d="M505.558,232.98c1.191-1.61,3.139-3.918,5.625-6.386c2.946-2.924,5.346-4.397,7.687-4.742
				c1.91-0.238,3.87,0.384,5.555,2.081c2.407,2.424,2.067,5.864,1.063,7.77l0.107,0.108c1.778-0.749,3.712-0.262,5.777,0.791
				c2.681,1.457,5.629,3.29,6.729,3.642l-4.405,4.373c-0.832-0.244-2.602-1.107-5.524-2.86c-2.814-1.699-4.24-1.46-6.132,0.364
				l-1.459,1.449l7.035,7.083l-4.27,4.238L505.558,232.98z M517.558,236.525l1.946-1.931c2.216-2.2,2.577-4.484,0.999-6.073
				c-1.685-1.697-3.785-1.163-5.758,0.795c-1.216,1.207-1.784,1.932-2.028,2.334L517.558,236.525z"/>
			<path class="st7" d="M545.329,214.034l-7.54,7.484l4.066,4.094l8.431-8.369l3.45,3.474l-12.728,12.634l-18.029-18.152
				l12.296-12.206l3.45,3.475l-7.999,7.94l3.611,3.636l7.54-7.484L545.329,214.034z"/>
			<path class="st7" d="M539.193,199.1l4.297-4.265l14.471,14.57l8.107-8.047l3.558,3.582l-12.404,12.313L539.193,199.1z"/>
			<path class="st7" d="M577.068,182.518l-7.54,7.484l4.066,4.094l8.431-8.369l3.451,3.474l-12.729,12.634l-18.028-18.152
				l12.296-12.206l3.45,3.475l-7.999,7.94l3.611,3.636l7.539-7.484L577.068,182.518z"/>
			<path class="st7" d="M588.831,176.238l3.355,6.296l-4.54,4.506l-11.921-24.214l5.756-5.714l24.406,11.821l-4.756,4.721
				l-6.409-3.265L588.831,176.238z M590.863,167.963l-5.149-2.591c-1.395-0.702-2.949-1.565-4.29-2.266l-0.054,0.054
				c0.719,1.318,1.652,2.798,2.371,4.171l2.609,5.112L590.863,167.963z"/>
			<path class="st7" d="M604.925,161.059c1.831-0.534,4.338-1.738,6.364-3.75c1.973-1.958,2.277-3.759,1.101-4.944
				c-1.069-1.077-2.604-0.838-5.704,0.849c-4.125,2.276-8.001,3.021-10.97,0.032c-3.13-3.151-2.619-8.311,1.813-12.71
				c2.378-2.36,4.428-3.539,6.232-4.208l2.344,4.413c-1.132,0.428-3.207,1.311-5.233,3.323c-1.892,1.877-2.008,3.544-1.099,4.459
				c1.178,1.185,2.821,0.517,6.137-1.17c4.582-2.356,7.89-2.43,10.672,0.371c2.889,2.909,3.32,7.936-2.192,13.408
				c-2.243,2.227-5.155,3.887-6.933,4.367L604.925,161.059z"/>
			<path class="st7" d="M629.788,130.169l-7.54,7.484l4.066,4.094l8.431-8.369l3.451,3.474l-12.729,12.634l-18.028-18.152
				l12.296-12.206l3.45,3.475l-7.999,7.94l3.611,3.636l7.539-7.484L629.788,130.169z"/>
		</g>
		<g>
			<path class="st7" d="M344.068,319.562c1.538-0.165,4.977-0.243,8.13-0.035c3.914,0.258,6.016,0.776,7.854,1.849
				c1.88,0.999,3.247,2.84,3.079,5.378c-0.148,2.235-1.653,4.229-4.725,5.093l-0.005,0.075c2.837,0.948,5.089,3.266,4.863,6.676
				c-0.16,2.425-1.501,4.238-3.293,5.376c-2.108,1.308-5.429,1.888-10.786,1.535c-3.153-0.208-5.418-0.585-6.773-0.865
				L344.068,319.562z M348.687,340.909c0.639,0.156,1.437,0.209,2.576,0.284c2.85,0.188,5.417-0.557,5.598-3.284
				c0.17-2.576-2.239-3.648-5.431-3.858l-2.279-0.15L348.687,340.909z M349.433,329.619l2.166,0.143
				c3.496,0.23,5.245-0.834,5.367-2.69c0.13-1.971-1.484-2.952-4.295-3.137c-1.52-0.101-2.323-0.077-2.862,0.001L349.433,329.619z"
				/>
			<path class="st7" d="M371.084,319.991l1.449,14.011c0.477,4.607,2.64,7.017,6.124,6.656c3.56-0.368,5.196-3.058,4.708-7.778
				l-1.449-14.011l6.022-0.623l1.43,13.822c0.855,8.271-3.219,12.547-10.491,13.3c-6.817,0.706-11.498-2.359-12.396-11.045
				l-1.418-13.709L371.084,319.991z"/>
			<path class="st7" d="M396.416,315.862l5.903,24.898l-5.891,1.397l-5.903-24.898L396.416,315.862z"/>
			<path class="st7" d="M399.648,315.187l5.706-2.025l6.868,19.357l10.767-3.822l1.688,4.759l-16.473,5.849L399.648,315.187z"/>
			<path class="st7" d="M416.572,309.73c1.965-1.481,4.551-3.178,7.348-4.729c4.761-2.643,8.252-3.494,11.589-3.132
				c3.441,0.392,6.547,2.141,8.667,5.957c2.341,4.215,2.247,8.045,1.03,11.108c-1.432,3.617-4.975,6.886-9.769,9.546
				c-3.03,1.682-5.186,2.662-6.662,3.22L416.572,309.73z M431.948,324.946c0.555-0.178,1.42-0.658,2.153-1.064
				c5.464-2.946,7.382-7.57,4.562-12.648c-2.599-4.68-7.119-5.21-12.046-2.476c-1.398,0.776-2.224,1.408-2.667,1.784
				L431.948,324.946z"/>
		</g>
		<g>
			<path class="st7" d="M225.476,197.706l-0.706-7.697l4.916-0.451l1.976,21.538l-4.916,0.45l-0.717-7.811l-20.569,1.884
				l-0.553-6.029L225.476,197.706z"/>
			<path class="st7" d="M222.418,234.398l-2.776-10.256l-5.571,1.508l3.104,11.469l-4.728,1.279l-4.686-17.313l24.703-6.685
				l4.527,16.725l-4.728,1.279l-2.945-10.88l-4.948,1.339l2.776,10.255L222.418,234.398z"/>
			<path class="st7" d="M221.4,244.355c-0.118,1.903,0.166,4.67,1.372,7.259c1.174,2.52,2.765,3.417,4.279,2.711
				c1.376-0.642,1.671-2.165,1.135-5.654c-0.744-4.652-0.131-8.551,3.688-10.331c4.025-1.876,8.708,0.353,11.345,6.014
				c1.416,3.037,1.83,5.364,1.847,7.289l-4.947,0.709c-0.019-1.209-0.146-3.461-1.353-6.049c-1.126-2.416-2.655-3.091-3.825-2.545
				c-1.514,0.705-1.441,2.479-0.978,6.169c0.664,5.11-0.388,8.247-3.966,9.915c-3.716,1.731-8.593,0.434-11.874-6.607
				c-1.334-2.864-1.91-6.167-1.76-8.002L221.4,244.355z"/>
			<path class="st7" d="M247.9,263.567l-4.42-6.341l4.048-2.822l12.368,17.741l-4.048,2.822l-4.486-6.434l-16.942,11.812
				l-3.462-4.966L247.9,263.567z"/>
		</g>
		<g>
			<path class="st7" d="M915.961,164.338c-7.703,2.057-14.44-1.977-16.602-10.07c-2.123-7.946,1.97-14.399,9.086-16.3
				c7.63-2.038,14.514,1.958,16.626,9.867C927.253,156.002,923.188,162.409,915.961,164.338z M910.289,144.136
				c-4.585,1.225-7.452,4.907-6.303,9.211c1.169,4.378,5.398,6.086,10.13,4.822c4.513-1.205,7.556-4.816,6.377-9.23
				C919.314,144.524,914.911,142.902,910.289,144.136z"/>
			<path class="st7" d="M928.739,169.858c0.413,1.883,0.836,4.604,1.071,8.671c0.218,3.763-0.389,6.43-1.614,8.255
				c-1.154,1.745-3.244,3.087-5.859,3.238c-2.426,0.141-4.671-0.53-6.128-2.047c-2.056-2.017-3.105-5.045-3.327-8.884
				c-0.051-0.874-0.023-1.715,0.058-2.292l-9.059,0.525l-0.348-6.006L928.739,169.858z M917.525,176.534
				c-0.118,0.579-0.117,1.265-0.058,2.292c0.189,3.269,1.793,5.35,4.446,5.196c2.388-0.139,3.568-2.076,3.389-5.192
				c-0.079-1.369-0.246-2.274-0.348-2.726L917.525,176.534z"/>
			<path class="st7" d="M913.113,212.457l1.2-10.554l-5.733-0.651l-1.343,11.802l-4.865-0.553l2.026-17.816l25.423,2.89
				l-1.958,17.211l-4.865-0.553l1.273-11.196l-5.092-0.579l-1.201,10.554L913.113,212.457z"/>
			<path class="st7" d="M925.804,223.429c-0.272,1.984-0.873,4.943-1.87,8.301c-1.181,3.979-2.579,6.423-4.468,7.848
				c-1.562,1.125-3.579,1.519-5.872,0.838c-3.274-0.972-4.627-4.153-4.661-6.308l-0.146-0.043c-1.2,1.51-3.131,2.01-5.447,2.077
				c-3.052,0.007-6.518-0.188-7.652,0.032l1.767-5.949c0.847-0.186,2.814-0.276,6.219-0.14c3.284,0.141,4.421-0.753,5.205-3.26
				l0.585-1.971l-9.571-2.841l1.712-5.767L925.804,223.429z M913.575,226.074l-0.78,2.628c-0.889,2.993-0.109,5.17,2.038,5.808
				c2.293,0.681,3.879-0.794,4.67-3.459c0.487-1.642,0.638-2.551,0.659-3.021L913.575,226.074z"/>
			<path class="st7" d="M897.368,248.282l-5.082-5.012l2.989-5.655l18.604,19.568l-3.79,7.169l-26.824-4.017l3.131-5.924
				l7.093,1.208L897.368,248.282z M897.897,256.788l5.688,0.939c1.541,0.254,3.282,0.615,4.771,0.886l0.036-0.067
				c-1.08-1.045-2.413-2.18-3.509-3.275l-4.016-4.104L897.897,256.788z"/>
			<path class="st7" d="M896.106,277.025l4.665-6.161l3.934,2.979l-13.053,17.239l-3.934-2.979l4.734-6.252l-16.461-12.468
				l3.654-4.826L896.106,277.025z"/>
			<path class="st7" d="M864.313,296.886l7.735-7.284l-3.956-4.2l-8.65,8.146l-3.358-3.564l13.059-12.297l17.545,18.625
				l-12.614,11.879l-3.358-3.564l8.207-7.729l-3.515-3.73l-7.735,7.284L864.313,296.886z"/>
		</g>
		<g>
			<circle class="st7" cx="858.875" cy="345.557" r="39.125"/>
			<g>
				<g>
					<path class="st0" d="M834.683,354.959c-0.828-2.138-1.38-4.407-1.627-6.764c-0.121-1.155-0.163-2.311-0.131-3.459
						c0.103-3.898,1.077-7.717,2.878-11.202l-1.299-0.67c-1.892,3.661-2.932,7.694-3.044,11.831
						c-0.032,1.212,0.014,2.434,0.141,3.659c0.264,2.503,0.858,4.893,1.733,7.131c1.882,4.82,5.071,8.938,9.087,11.97l0.872-1.157
						C839.348,363.324,836.411,359.423,834.683,354.959z"/>
					<path class="st3" d="M885.907,360.74l-0.032-0.02c-2.11,3.713-4.975,6.967-8.404,9.533c-4.311,3.229-9.517,5.373-15.252,5.976
						c-4.825,0.506-9.512-0.131-13.789-1.691l-0.011,0.029l-0.702,1.941l-0.675,1.856c4.967,1.799,10.37,2.457,15.63,1.903
						c7.052-0.739,13.638-3.576,19.047-8.2c3.133-2.679,5.72-5.85,7.698-9.343L885.907,360.74z"/>
					<path class="st9" d="M885.579,322.744l-3.087,2.639c4.051,4.731,6.587,10.589,7.246,16.861
						c0.697,6.63-0.766,12.997-3.818,18.401c-0.014,0.025-0.029,0.052-0.045,0.075l0.032,0.02l3.51,1.985
						c3.552-6.266,5.137-13.566,4.362-20.933C893.038,334.739,890.204,328.152,885.579,322.744z"/>
					<path class="st9" d="M886.372,342.598c-0.606-5.757-2.929-10.929-6.432-15.035l-1.134,0.971l-1.498,1.148
						c1.097,1.268,2.008,2.574,2.831,4.056c1.594,2.872,2.572,5.965,2.911,9.195c0.522,4.948-0.54,10.063-2.983,14.416l1.634,0.92
						l1.27,0.715C885.691,354.172,886.991,348.5,886.372,342.598z"/>
					<path class="st3" d="M881.701,358.269c-0.014,0.023-0.025,0.045-0.038,0.069c-1.475,2.6-3.401,4.961-5.736,6.957
						c-0.438,0.376-0.892,0.733-1.351,1.076c-3.756,2.811-8.159,4.544-12.836,5.034c-3.926,0.413-7.958-0.079-11.661-1.42
						l-0.495,1.369c3.81,1.39,7.982,1.958,12.281,1.508c5.106-0.538,9.743-2.447,13.582-5.322c3.052-2.285,5.602-5.181,7.481-8.484
						c0.015-0.025,0.029-0.048,0.042-0.072L881.701,358.269z"/>
					<path class="st3" d="M882.326,325.19c-0.852-0.978-1.767-1.906-2.745-2.782c-5.706-5.09-13.042-7.88-20.655-7.856l0.01,3.387
						c8.297-0.026,15.781,3.605,20.854,9.452c0.051,0.059,0.101,0.115,0.15,0.173l2.552-2.181
						C882.438,325.318,882.381,325.255,882.326,325.19z"/>
					<path class="st3" d="M836.082,327.898l-0.565-0.434l-1.062-0.814c-1.132,1.477-2.119,3.034-2.959,4.659l3.008,1.556
						c0.749-1.448,1.629-2.838,2.639-4.153L836.082,327.898z"/>
					<path class="st8" d="M855.973,316.761c0.976-0.103,1.966-0.157,2.947-0.159l-0.004-0.712c-1.003,0.003-2.019,0.057-3.018,0.163
						c-8.155,0.856-15.393,4.908-20.382,11.411l0.565,0.434C840.952,321.553,848.013,317.598,855.973,316.761z"/>
					<path class="st8" d="M889.738,342.244c-0.659-6.272-3.195-12.13-7.246-16.861l-2.552,2.181
						c3.503,4.106,5.825,9.278,6.432,15.035c0.619,5.902-0.681,11.573-3.401,16.386c-0.015,0.024-0.027,0.047-0.042,0.071
						c-1.88,3.305-4.43,6.2-7.481,8.485c-3.839,2.875-8.476,4.784-13.582,5.322c-4.299,0.45-8.472-0.118-12.283-1.508
						c-2.578-0.945-4.989-2.265-7.161-3.899c-4.016-3.033-7.204-7.149-9.087-11.97c-0.875-2.238-1.47-4.628-1.733-7.131
						c-0.127-1.226-0.173-2.447-0.141-3.659c0.112-4.137,1.152-8.17,3.044-11.831l-3.008-1.556
						c-2.125,4.113-3.295,8.643-3.421,13.288c-0.037,1.363,0.013,2.734,0.159,4.111c0.294,2.81,0.963,5.494,1.943,8.006
						c2.115,5.415,5.693,10.039,10.208,13.441c2.437,1.839,5.146,3.323,8.044,4.382c4.277,1.561,8.964,2.197,13.789,1.691
						c5.735-0.603,10.941-2.747,15.252-5.976c3.43-2.566,6.294-5.82,8.404-9.533c0.016-0.023,0.03-0.05,0.044-0.075
						C888.973,355.241,890.436,348.873,889.738,342.244z"/>
					<path class="st0" d="M830.178,356.714c-0.98-2.512-1.649-5.196-1.943-8.006c-0.146-1.377-0.196-2.748-0.159-4.111
						c0.126-4.646,1.296-9.175,3.421-13.288l-3.61-1.865c-3.133,6.062-4.409,12.867-3.693,19.683
						c0.498,4.724,1.913,9.216,4.209,13.353c2.38,4.285,5.586,7.965,9.527,10.937l1.185-1.576l1.248-1.651l0.024-0.032
						C835.873,366.753,832.293,362.129,830.178,356.714z"/>
				</g>
				<g>
					<g>
						<g>
							<path class="st8" d="M867.797,325.098c-1.229,0-2.606,0.079-4.102,0.234l-31.636,3.366L829.242,329l1.16,2.587l6.619,14.767
								c0,0,0.312,0.775,0.697,1.397c0.386,0.62,0.97,1.088,0.97,1.088c0.63,0.616,1.349,1.086,2.134,1.439l-1.943,0.205
								l-2.044,0.216l0.216,2.044l0.236,2.251c0.703,6.698,4.059,9.558,11.217,9.558c1.342,0,2.883-0.094,4.713-0.285l12.114-1.273
								c6.768-0.71,11.22-1.528,13.951-3.604c3.399-2.584,3.481-6.615,3.063-10.586c-0.565-5.389-2.166-8.463-5.571-9.918
								l1.086-0.112l2.042-0.215l-0.214-2.044l-0.108-1.034C879.052,330.455,877.663,325.098,867.797,325.098L867.797,325.098z"/>
						</g>
					</g>
					<path class="st7" d="M851.269,339.318c-0.763,0-1.15-0.061-1.332-0.105c-0.02-0.087-0.042-0.226-0.065-0.433
						c-0.008-0.082,0-0.129-0.004-0.129c0.054-0.079,0.496-0.403,1.692-0.531l11.081-1.163c0.691-0.072,1.281-0.11,1.754-0.11
						c0.606,0,0.908,0.061,1.039,0.098c0.056,0.179,0.111,0.53,0.167,1.049l0.002,0.04c-1.866,0.14-3.834,0.339-5.759,0.547
						C855.766,339.026,852.965,339.318,851.269,339.318z"/>
					<path class="st7" d="M866.242,349.931c1.025,0,1.502,0.087,1.703,0.143c0.018,0.085,0.041,0.217,0.063,0.416
						c0.031,0.302-0.014,0.41-0.014,0.41c-0.061,0.078-0.399,0.345-2.147,0.528l-12.25,1.287c-0.453,0.048-0.975,0.096-1.398,0.096
						c-0.509,0-0.657-0.07-0.663-0.07c-0.008-0.007-0.255-0.276-0.398-1.506l-0.004-0.034c1.387-0.091,2.961-0.23,4.765-0.42
						C861.249,350.218,864.318,349.931,866.242,349.931z"/>
					<path class="st7" d="M867.797,327.154c8.005,0,9.213,3.537,9.739,8.539l0.108,1.034l-9.999,1.053
						c-0.211-1.989-0.505-2.99-3.251-2.99c-0.551,0-1.201,0.041-1.97,0.123l-11.078,1.163c-2.253,0.235-3.704,1.165-3.519,2.92
						c0.179,1.712,0.696,2.378,3.441,2.378c1.798,0,4.553-0.286,8.797-0.75c4.152-0.448,7.458-0.736,10.093-0.736
						c7.226,0,9.409,2.166,10.141,9.128c0.924,8.783-1.898,10.536-15.184,11.933l-12.115,1.272
						c-1.674,0.176-3.169,0.275-4.497,0.275c-5.903,0-8.566-1.946-9.171-7.719l-0.239-2.25l10-1.051
						c0.323,2.745,1.286,3.391,3.104,3.391c0.478,0,1.015-0.044,1.611-0.106l12.253-1.287c2.114-0.223,4.253-0.675,3.988-3.197
						c-0.179-1.696-0.675-2.4-3.809-2.4c-2.101,0-5.39,0.318-10.561,0.86c-3.342,0.352-6.035,0.546-8.211,0.546
						c-5.193,0-7.449-1.102-8.568-3.773l-0.004,0.005l-6.62-14.768l31.633-3.367C865.359,327.226,866.649,327.154,867.797,327.154"
						/>
					<polygon class="st6" points="846.818,336.911 844.196,331.016 840.789,331.374 834.652,332.021 837.744,338.967 839.6,343.141 
											"/>
				</g>
			</g>
		</g>
		<g>
			<circle class="st7" cx="475.998" cy="341.557" r="39.125"/>
			<g>
				<g>
					<path class="st0" d="M451.805,350.959c-0.828-2.138-1.38-4.407-1.627-6.764c-0.121-1.155-0.163-2.311-0.131-3.459
						c0.103-3.898,1.077-7.717,2.878-11.202l-1.299-0.67c-1.892,3.661-2.932,7.694-3.044,11.831
						c-0.032,1.212,0.014,2.434,0.141,3.659c0.264,2.503,0.858,4.893,1.733,7.131c1.882,4.82,5.071,8.938,9.087,11.97l0.872-1.157
						C456.47,359.324,453.534,355.423,451.805,350.959z"/>
					<path class="st3" d="M503.03,356.74l-0.032-0.02c-2.11,3.713-4.975,6.967-8.404,9.533c-4.311,3.229-9.517,5.373-15.252,5.976
						c-4.825,0.506-9.512-0.131-13.789-1.691l-0.011,0.029l-0.702,1.941l-0.675,1.856c4.967,1.799,10.37,2.457,15.63,1.903
						c7.052-0.739,13.638-3.576,19.047-8.2c3.133-2.679,5.72-5.85,7.698-9.343L503.03,356.74z"/>
					<path class="st9" d="M502.702,318.744l-3.087,2.639c4.051,4.731,6.587,10.589,7.246,16.861
						c0.697,6.63-0.766,12.997-3.818,18.401c-0.014,0.025-0.029,0.052-0.045,0.075l0.032,0.02l3.51,1.985
						c3.552-6.266,5.137-13.566,4.362-20.933C510.161,330.739,507.327,324.152,502.702,318.744z"/>
					<path class="st9" d="M503.495,338.598c-0.606-5.757-2.929-10.929-6.432-15.035l-1.134,0.971l-1.498,1.148
						c1.097,1.268,2.008,2.574,2.831,4.056c1.594,2.872,2.572,5.965,2.911,9.195c0.522,4.948-0.54,10.063-2.983,14.416l1.634,0.92
						l1.27,0.715C502.814,350.172,504.114,344.5,503.495,338.598z"/>
					<path class="st3" d="M498.824,354.269c-0.014,0.023-0.025,0.045-0.038,0.069c-1.475,2.6-3.401,4.961-5.736,6.957
						c-0.438,0.376-0.892,0.733-1.351,1.076c-3.756,2.811-8.159,4.544-12.836,5.034c-3.926,0.413-7.958-0.079-11.661-1.42
						l-0.495,1.369c3.81,1.39,7.982,1.958,12.281,1.508c5.106-0.538,9.743-2.447,13.582-5.322c3.052-2.285,5.602-5.181,7.481-8.484
						c0.015-0.025,0.029-0.048,0.042-0.072L498.824,354.269z"/>
					<path class="st3" d="M499.449,321.19c-0.852-0.978-1.767-1.906-2.745-2.782c-5.706-5.09-13.042-7.88-20.655-7.856l0.01,3.387
						c8.297-0.026,15.781,3.605,20.854,9.452c0.051,0.059,0.101,0.115,0.15,0.173l2.552-2.181
						C499.56,321.318,499.503,321.255,499.449,321.19z"/>
					<path class="st3" d="M453.205,323.898l-0.565-0.434l-1.062-0.814c-1.132,1.477-2.119,3.034-2.959,4.659l3.008,1.556
						c0.749-1.448,1.629-2.838,2.639-4.153L453.205,323.898z"/>
					<path class="st8" d="M473.095,312.761c0.976-0.103,1.966-0.157,2.947-0.159l-0.004-0.712c-1.003,0.003-2.019,0.057-3.018,0.163
						c-8.155,0.856-15.393,4.908-20.382,11.411l0.565,0.434C458.075,317.553,465.135,313.598,473.095,312.761z"/>
					<path class="st8" d="M506.861,338.244c-0.659-6.272-3.195-12.13-7.246-16.861l-2.552,2.181
						c3.503,4.106,5.825,9.278,6.432,15.035c0.619,5.902-0.681,11.573-3.401,16.386c-0.015,0.024-0.027,0.047-0.042,0.071
						c-1.88,3.305-4.43,6.2-7.481,8.485c-3.839,2.875-8.476,4.784-13.582,5.322c-4.299,0.45-8.472-0.118-12.283-1.508
						c-2.578-0.945-4.989-2.265-7.161-3.899c-4.016-3.033-7.204-7.149-9.087-11.97c-0.875-2.238-1.47-4.628-1.733-7.131
						c-0.127-1.226-0.173-2.447-0.141-3.659c0.112-4.137,1.152-8.17,3.044-11.831l-3.008-1.556
						c-2.125,4.113-3.295,8.643-3.421,13.288c-0.037,1.363,0.013,2.734,0.159,4.111c0.294,2.81,0.963,5.494,1.943,8.006
						c2.115,5.415,5.693,10.039,10.208,13.441c2.437,1.839,5.146,3.323,8.044,4.382c4.277,1.561,8.964,2.197,13.789,1.691
						c5.735-0.603,10.941-2.747,15.252-5.976c3.43-2.566,6.294-5.82,8.404-9.533c0.016-0.023,0.03-0.05,0.044-0.075
						C506.095,351.241,507.558,344.873,506.861,338.244z"/>
					<path class="st0" d="M447.3,352.714c-0.98-2.512-1.649-5.196-1.943-8.006c-0.146-1.377-0.196-2.748-0.159-4.111
						c0.126-4.646,1.296-9.175,3.421-13.288l-3.61-1.865c-3.133,6.062-4.409,12.867-3.693,19.683
						c0.498,4.724,1.913,9.216,4.209,13.353c2.38,4.285,5.586,7.965,9.527,10.937l1.185-1.576l1.248-1.651l0.024-0.032
						C452.996,362.753,449.416,358.129,447.3,352.714z"/>
				</g>
				<g>
					<g>
						<g>
							<path class="st8" d="M484.919,321.098c-1.229,0-2.606,0.079-4.102,0.234l-31.636,3.366L446.365,325l1.16,2.587l6.619,14.767
								c0,0,0.312,0.775,0.697,1.397c0.386,0.62,0.97,1.088,0.97,1.088c0.63,0.616,1.349,1.086,2.134,1.439l-1.943,0.205
								l-2.044,0.216l0.216,2.044l0.236,2.251c0.703,6.698,4.059,9.558,11.217,9.558c1.342,0,2.883-0.094,4.713-0.285l12.114-1.273
								c6.768-0.71,11.22-1.528,13.951-3.604c3.399-2.584,3.481-6.615,3.063-10.586c-0.565-5.389-2.166-8.463-5.571-9.918
								l1.086-0.112l2.042-0.215l-0.214-2.044l-0.108-1.034C496.174,326.455,494.786,321.098,484.919,321.098L484.919,321.098z"/>
						</g>
					</g>
					<path class="st7" d="M468.391,335.318c-0.763,0-1.15-0.061-1.332-0.105c-0.02-0.087-0.042-0.226-0.065-0.433
						c-0.008-0.082,0-0.129-0.004-0.129c0.054-0.079,0.496-0.403,1.692-0.531l11.081-1.163c0.691-0.072,1.281-0.11,1.754-0.11
						c0.606,0,0.908,0.061,1.039,0.098c0.056,0.179,0.111,0.53,0.167,1.049l0.002,0.04c-1.866,0.14-3.834,0.339-5.759,0.547
						C472.888,335.026,470.087,335.318,468.391,335.318z"/>
					<path class="st7" d="M483.365,345.931c1.025,0,1.502,0.087,1.703,0.143c0.018,0.085,0.041,0.217,0.063,0.416
						c0.031,0.302-0.014,0.41-0.014,0.41c-0.061,0.078-0.399,0.345-2.147,0.528l-12.25,1.287c-0.453,0.048-0.975,0.096-1.398,0.096
						c-0.509,0-0.657-0.07-0.663-0.07c-0.008-0.007-0.255-0.276-0.398-1.506l-0.004-0.034c1.387-0.091,2.961-0.23,4.765-0.42
						C478.372,346.218,481.441,345.931,483.365,345.931z"/>
					<path class="st7" d="M484.919,323.154c8.005,0,9.213,3.537,9.739,8.539l0.108,1.034l-9.999,1.053
						c-0.211-1.989-0.505-2.99-3.251-2.99c-0.551,0-1.201,0.041-1.97,0.123l-11.078,1.163c-2.253,0.235-3.704,1.165-3.519,2.92
						c0.179,1.712,0.696,2.378,3.441,2.378c1.798,0,4.553-0.286,8.797-0.75c4.152-0.448,7.458-0.736,10.093-0.736
						c7.226,0,9.409,2.166,10.141,9.128c0.924,8.783-1.898,10.536-15.184,11.933l-12.115,1.272
						c-1.674,0.176-3.169,0.275-4.497,0.275c-5.903,0-8.566-1.946-9.171-7.719l-0.239-2.25l10-1.051
						c0.323,2.745,1.286,3.391,3.104,3.391c0.478,0,1.015-0.044,1.611-0.106l12.253-1.287c2.114-0.223,4.253-0.675,3.988-3.197
						c-0.179-1.696-0.675-2.4-3.809-2.4c-2.101,0-5.39,0.318-10.561,0.86c-3.342,0.352-6.035,0.546-8.211,0.546
						c-5.193,0-7.449-1.102-8.568-3.773l-0.004,0.005l-6.62-14.768l31.633-3.367C482.482,323.226,483.772,323.154,484.919,323.154"
						/>
					<polygon class="st6" points="463.941,332.911 461.319,327.016 457.912,327.374 451.775,328.021 454.867,334.967 
						456.722,339.141 					"/>
				</g>
			</g>
		</g>
		<g>
			<circle class="st7" cx="249.509" cy="322.058" r="39.125"/>
			<g>
				<g>
					<path class="st0" d="M225.316,331.46c-0.828-2.138-1.38-4.407-1.627-6.764c-0.121-1.155-0.163-2.311-0.131-3.459
						c0.103-3.898,1.077-7.717,2.878-11.202l-1.299-0.67c-1.892,3.661-2.932,7.694-3.044,11.831
						c-0.032,1.212,0.014,2.434,0.141,3.659c0.264,2.503,0.858,4.893,1.733,7.131c1.882,4.82,5.071,8.938,9.087,11.97l0.872-1.157
						C229.981,339.825,227.045,335.924,225.316,331.46z"/>
					<path class="st3" d="M276.541,337.241l-0.032-0.02c-2.11,3.713-4.975,6.967-8.404,9.533c-4.311,3.229-9.517,5.373-15.252,5.976
						c-4.825,0.506-9.512-0.131-13.789-1.691l-0.011,0.029l-0.702,1.941l-0.675,1.856c4.967,1.799,10.37,2.457,15.63,1.903
						c7.052-0.739,13.638-3.576,19.047-8.2c3.133-2.679,5.72-5.85,7.698-9.343L276.541,337.241z"/>
					<path class="st9" d="M276.213,299.245l-3.087,2.639c4.051,4.731,6.587,10.589,7.246,16.861
						c0.697,6.63-0.766,12.997-3.818,18.401c-0.014,0.025-0.029,0.052-0.045,0.075l0.032,0.02l3.51,1.985
						c3.552-6.266,5.137-13.566,4.362-20.933C283.672,311.24,280.838,304.653,276.213,299.245z"/>
					<path class="st9" d="M277.006,319.099c-0.606-5.757-2.929-10.929-6.432-15.035l-1.134,0.971l-1.498,1.148
						c1.097,1.268,2.008,2.574,2.831,4.056c1.594,2.872,2.572,5.965,2.911,9.195c0.522,4.948-0.54,10.063-2.983,14.416l1.634,0.92
						l1.27,0.715C276.325,330.673,277.625,325.001,277.006,319.099z"/>
					<path class="st3" d="M272.335,334.77c-0.014,0.023-0.025,0.045-0.038,0.069c-1.475,2.6-3.401,4.961-5.736,6.957
						c-0.438,0.376-0.892,0.733-1.351,1.076c-3.756,2.811-8.159,4.544-12.836,5.034c-3.926,0.413-7.958-0.079-11.661-1.42
						l-0.495,1.369c3.81,1.39,7.982,1.958,12.281,1.508c5.106-0.538,9.743-2.447,13.582-5.322c3.052-2.285,5.602-5.181,7.481-8.484
						c0.015-0.025,0.029-0.048,0.042-0.072L272.335,334.77z"/>
					<path class="st3" d="M272.96,301.691c-0.852-0.978-1.767-1.906-2.745-2.782c-5.706-5.09-13.042-7.88-20.655-7.856l0.01,3.387
						c8.297-0.026,15.781,3.605,20.854,9.452c0.051,0.059,0.101,0.115,0.15,0.173l2.552-2.181
						C273.071,301.819,273.015,301.756,272.96,301.691z"/>
					<path class="st3" d="M226.716,304.399l-0.565-0.434l-1.062-0.814c-1.132,1.477-2.119,3.034-2.959,4.659l3.008,1.556
						c0.749-1.448,1.629-2.838,2.639-4.153L226.716,304.399z"/>
					<path class="st8" d="M246.606,293.262c0.976-0.103,1.966-0.157,2.947-0.159l-0.004-0.712c-1.003,0.003-2.019,0.057-3.018,0.163
						c-8.155,0.856-15.393,4.908-20.382,11.411l0.565,0.434C231.586,298.054,238.646,294.099,246.606,293.262z"/>
					<path class="st8" d="M280.372,318.745c-0.659-6.272-3.195-12.13-7.246-16.861l-2.552,2.181
						c3.503,4.106,5.825,9.278,6.432,15.035c0.619,5.902-0.681,11.573-3.401,16.386c-0.015,0.024-0.027,0.047-0.042,0.071
						c-1.88,3.305-4.43,6.2-7.481,8.485c-3.839,2.875-8.476,4.784-13.582,5.322c-4.299,0.45-8.472-0.118-12.283-1.508
						c-2.578-0.945-4.989-2.265-7.161-3.899c-4.016-3.033-7.204-7.149-9.087-11.97c-0.875-2.238-1.47-4.628-1.733-7.131
						c-0.127-1.226-0.173-2.447-0.141-3.659c0.112-4.137,1.152-8.17,3.044-11.831l-3.008-1.556
						c-2.125,4.113-3.295,8.643-3.421,13.288c-0.037,1.363,0.013,2.734,0.159,4.111c0.294,2.81,0.963,5.494,1.943,8.006
						c2.115,5.415,5.693,10.039,10.208,13.441c2.437,1.839,5.146,3.323,8.044,4.382c4.277,1.561,8.964,2.197,13.789,1.691
						c5.735-0.603,10.941-2.747,15.252-5.976c3.43-2.566,6.294-5.82,8.404-9.533c0.016-0.023,0.03-0.05,0.044-0.075
						C279.606,331.742,281.069,325.374,280.372,318.745z"/>
					<path class="st0" d="M220.812,333.215c-0.98-2.512-1.649-5.196-1.943-8.006c-0.146-1.377-0.196-2.748-0.159-4.111
						c0.126-4.646,1.296-9.175,3.421-13.288l-3.61-1.865c-3.133,6.062-4.409,12.867-3.693,19.683
						c0.498,4.724,1.913,9.216,4.209,13.353c2.38,4.285,5.586,7.965,9.527,10.937l1.185-1.576l1.248-1.651l0.024-0.032
						C226.507,343.254,222.927,338.63,220.812,333.215z"/>
				</g>
				<g>
					<g>
						<g>
							<path class="st8" d="M258.431,301.599c-1.229,0-2.606,0.079-4.102,0.234l-31.636,3.366l-2.817,0.301l1.16,2.587l6.619,14.767
								c0,0,0.312,0.775,0.697,1.397c0.386,0.62,0.97,1.088,0.97,1.088c0.63,0.616,1.349,1.086,2.134,1.439l-1.943,0.205
								l-2.044,0.216l0.216,2.044l0.236,2.251c0.703,6.698,4.059,9.558,11.217,9.558c1.342,0,2.883-0.094,4.713-0.285l12.114-1.273
								c6.768-0.71,11.22-1.528,13.951-3.604c3.399-2.584,3.481-6.615,3.063-10.586c-0.565-5.389-2.166-8.463-5.571-9.918
								l1.086-0.112l2.042-0.215l-0.214-2.044l-0.108-1.034C269.686,306.956,268.297,301.599,258.431,301.599L258.431,301.599z"/>
						</g>
					</g>
					<path class="st7" d="M241.902,315.819c-0.763,0-1.15-0.061-1.332-0.105c-0.02-0.087-0.042-0.226-0.065-0.433
						c-0.008-0.082,0-0.129-0.004-0.129c0.054-0.079,0.496-0.403,1.692-0.531l11.081-1.163c0.691-0.072,1.281-0.11,1.754-0.11
						c0.606,0,0.908,0.061,1.039,0.098c0.056,0.179,0.111,0.53,0.167,1.049l0.002,0.04c-1.866,0.14-3.834,0.339-5.759,0.547
						C246.399,315.527,243.599,315.819,241.902,315.819z"/>
					<path class="st7" d="M256.876,326.432c1.025,0,1.502,0.087,1.703,0.143c0.018,0.085,0.041,0.217,0.063,0.416
						c0.031,0.302-0.014,0.41-0.014,0.41c-0.061,0.078-0.399,0.345-2.147,0.528l-12.25,1.287c-0.453,0.048-0.975,0.096-1.398,0.096
						c-0.509,0-0.657-0.07-0.663-0.07c-0.008-0.007-0.255-0.276-0.398-1.506l-0.004-0.034c1.387-0.091,2.961-0.23,4.765-0.42
						C251.883,326.719,254.952,326.432,256.876,326.432z"/>
					<path class="st7" d="M258.431,303.655c8.005,0,9.213,3.537,9.739,8.539l0.108,1.034l-9.999,1.053
						c-0.211-1.989-0.505-2.99-3.251-2.99c-0.551,0-1.201,0.041-1.97,0.123l-11.078,1.163c-2.253,0.235-3.704,1.165-3.519,2.92
						c0.179,1.712,0.696,2.378,3.441,2.378c1.798,0,4.553-0.286,8.797-0.75c4.152-0.448,7.458-0.736,10.093-0.736
						c7.226,0,9.409,2.166,10.141,9.128c0.924,8.783-1.898,10.536-15.184,11.933l-12.115,1.272
						c-1.674,0.176-3.169,0.275-4.497,0.275c-5.903,0-8.566-1.946-9.171-7.719l-0.239-2.25l10-1.051
						c0.323,2.745,1.286,3.391,3.104,3.391c0.478,0,1.015-0.044,1.611-0.106l12.253-1.287c2.114-0.223,4.253-0.675,3.988-3.197
						c-0.179-1.696-0.675-2.4-3.809-2.4c-2.101,0-5.39,0.318-10.561,0.86c-3.342,0.352-6.035,0.546-8.211,0.546
						c-5.193,0-7.449-1.102-8.568-3.773l-0.004,0.005l-6.62-14.768l31.633-3.367C255.993,303.727,257.283,303.655,258.431,303.655"
						/>
					<polygon class="st6" points="237.452,313.412 234.83,307.517 231.423,307.875 225.286,308.522 228.378,315.468 
						230.233,319.642 					"/>
				</g>
			</g>
		</g>
		<g>
			<g>
				<path class="st7" d="M37.019,449.684v-5.311l3.026,7.239c0.778,1.86,2.597,3.071,4.613,3.071h4.29
					c0.975,0,1.877-0.29,2.646-0.772c0.769,0.482,1.671,0.772,2.646,0.772h2.706c2.761,0,5-2.238,5-5v-25.327h0.859v25.327
					c0,2.762,2.239,5,5,5h2.706c2.761,0,5-2.238,5-5v-25.327h2.653c2.761,0,5-2.238,5-5v-3.246c0-2.762-2.239-5-5-5H60.152
					c-0.564,0-1.097,0.114-1.604,0.286c-0.506-0.172-1.039-0.286-1.603-0.286H54.24c-0.975,0-1.877,0.29-2.646,0.772
					c-0.769-0.482-1.671-0.772-2.646-0.772h-2.706c-2.761,0-5,2.238-5,5v5.309l-3.025-7.237c-0.778-1.86-2.597-3.071-4.613-3.071
					h-4.29c-0.857,0-1.651,0.235-2.356,0.615c-0.705-0.38-1.5-0.615-2.356-0.615h-2.706c-2.761,0-5,2.238-5,5v25.649
					c-0.356,0.028-0.831,0.049-1.455,0.049c-0.585,0-1.036-0.019-1.377-0.045v-25.653c0-2.762-2.239-5-5-5H6.358
					c-2.761,0-5,2.238-5,5v24.994c0,9.647,4.343,13.95,14.083,13.95c3.39,0,7.035-0.424,9.779-2.513
					c0.904,1.292,2.397,2.142,4.094,2.142h2.705C34.78,454.684,37.019,452.446,37.019,449.684z"/>
				<path class="st7" d="M89.446,424.357h2.653v25.327c0,2.762,2.239,5,5,5h2.706c2.761,0,5-2.238,5-5v-25.327h0.279v25.327
					c0,2.762,2.239,5,5,5h14.919c1.434,0,2.718-0.611,3.629-1.578c2.565,1.608,5.794,1.949,8.814,1.949
					c7.903,0,12.046-2.976,13.241-9.748v4.377c0,2.762,2.239,5,5,5h2.706c2.761,0,5-2.238,5-5v-25.327h0.858v25.327
					c0,2.762,2.239,5,5,5h2.706c0.975,0,1.878-0.29,2.647-0.773c0.769,0.483,1.672,0.773,2.647,0.773h2.705c2.761,0,5-2.238,5-5
					v-5.311l3.026,7.239c0.778,1.86,2.597,3.071,4.613,3.071h4.29c1.719,0,3.234-0.868,4.134-2.189
					c2.355,1.758,5.639,2.561,10.048,2.561c6.926,0,14.314-1.11,14.314-14.367v-7.512c0-1.398-0.574-2.663-1.5-3.571
					c0.926-0.907,1.5-2.172,1.5-3.57v-3.385c0-11.91-10.399-11.91-14.314-11.91c-4.409,0-7.693,0.803-10.048,2.561
					c-0.9-1.321-2.415-2.189-4.134-2.189h-2.706c-2.761,0-5,2.238-5,5v5.309l-3.025-7.237c-0.778-1.86-2.597-3.071-4.613-3.071
					h-4.29c-0.975,0-1.878,0.291-2.647,0.773c-0.769-0.482-1.672-0.773-2.647-0.773h-2.706c-0.564,0-1.097,0.114-1.603,0.286
					c-0.506-0.172-1.039-0.286-1.603-0.286h-18.011c-1.129,0-2.159,0.388-2.996,1.019c-1.886-0.9-4.337-1.39-7.554-1.39
					c-3.823,0-6.697,0.598-8.793,1.928c-0.911-0.955-2.188-1.557-3.612-1.557h-14.996c-0.458,0-0.892,0.081-1.313,0.196
					c-0.421-0.115-0.855-0.196-1.313-0.196H89.446c-2.761,0-5,2.238-5,5v3.246C84.446,422.119,86.685,424.357,89.446,424.357z"/>
				<path class="st7" d="M295.416,517.023h-2.706c-2.761,0-5,2.238-5,5v5.309l-3.025-7.237c-0.778-1.86-2.597-3.071-4.613-3.071
					h-4.29c-1.719,0-3.234,0.868-4.134,2.189c-2.354-1.758-5.638-2.561-10.047-2.561c-4.665,0-8.086,0.882-10.462,2.861
					c-0.868-1.482-2.459-2.49-4.301-2.49h-2.705c-0.564,0-1.097,0.114-1.603,0.286c-0.506-0.172-1.039-0.286-1.603-0.286h-18.011
					c-1.452,0-2.749,0.629-3.662,1.618c-0.924-1.005-2.243-1.618-3.679-1.618h-3.787c-2.274,0-4.262,1.535-4.837,3.735l-1.867,7.144
					c-0.489-4.68-2.589-10.879-11.614-10.879h-11.44c-0.857,0-1.651,0.235-2.356,0.615c-0.705-0.38-1.5-0.615-2.356-0.615h-2.705
					c-2.761,0-5,2.238-5,5v25.649c-0.356,0.028-0.831,0.049-1.455,0.049c-0.585,0-1.035-0.019-1.377-0.045v-25.653
					c0-2.762-2.239-5-5-5h-2.706c-1.498,0-2.827,0.673-3.743,1.717c-3.293-2.086-7.513-2.088-9.703-2.088
					c-4.665,0-8.086,0.882-10.462,2.861c-0.868-1.482-2.459-2.49-4.301-2.49h-2.705c-0.708,0-1.379,0.151-1.99,0.417
					c-0.61-0.266-1.282-0.417-1.99-0.417h-14.494c-0.857,0-1.651,0.235-2.356,0.615c-0.705-0.38-1.499-0.615-2.356-0.615h-2.706
					c-2.761,0-5,2.238-5,5v5.309l-3.025-7.237c-0.778-1.86-2.597-3.071-4.613-3.071h-4.29c-1.719,0-3.234,0.868-4.134,2.189
					c-2.354-1.758-5.638-2.561-10.047-2.561c-5.241,0-8.905,1.121-11.288,3.653c-2.573-3.057-6.62-3.653-10.856-3.653
					c-10.718,0-14.895,4.626-14.895,16.501v11.314c0,11.874,4.176,16.5,14.895,16.5c5.13,0,8.639-1.148,10.821-3.687
					c2.381,2.558,6.057,3.687,11.323,3.687c4.409,0,7.693-0.803,10.048-2.561c0.899,1.321,2.415,2.189,4.134,2.189h2.706
					c2.761,0,5-2.238,5-5v-5.309l3.025,7.237c0.778,1.86,2.597,3.071,4.613,3.071h4.29c0.857,0,1.651-0.235,2.356-0.615
					c0.705,0.38,1.499,0.615,2.356,0.615h2.706c2.761,0,5-2.238,5-5v-10.303h5.768v10.303c0,2.762,2.239,5,5,5h2.705
					c1.842,0,3.434-1.007,4.301-2.49c2.376,1.979,5.797,2.861,10.462,2.861c4.245,0,8.661-0.423,11.446-3.798
					c2.287,2.574,5.919,3.798,11.083,3.798c3.39,0,7.035-0.424,9.779-2.513c0.904,1.292,2.397,2.142,4.094,2.142h2.706
					c2.761,0,5-2.238,5-5v-8.494h2.034c0.099,0,0.191,0.001,0.276,0.003c0.012,0.229,0.019,0.505,0.019,0.84v7.651
					c0,2.762,2.239,5,5,5h2.706c0.56,0,1.088-0.113,1.591-0.282c0.525,0.184,1.083,0.282,1.652,0.282h2.822
					c2.284,0,4.277-1.548,4.844-3.76l0.854-3.335h4.296l0.854,3.335c0.566,2.212,2.56,3.76,4.844,3.76h2.821c0.006,0,0.012,0,0.02,0
					c1.178,0,2.246-0.424,3.1-1.105c0.854,0.682,1.923,1.105,3.101,1.105h2.705c2.761,0,5-2.238,5-5v-25.327h0.858v25.327
					c0,2.762,2.239,5,5,5h2.705c1.842,0,3.434-1.007,4.301-2.49c2.376,1.979,5.797,2.861,10.462,2.861
					c4.409,0,7.693-0.803,10.048-2.561c0.899,1.321,2.415,2.189,4.134,2.189h2.706c2.761,0,5-2.238,5-5v-5.309l3.025,7.237
					c0.778,1.86,2.597,3.071,4.613,3.071h4.29c2.761,0,5-2.238,5-5v-33.573C300.416,519.261,298.177,517.023,295.416,517.023z"/>
				<path class="st7" d="M430.404,516.652c-4.409,0-7.693,0.803-10.048,2.561c-0.9-1.321-2.415-2.189-4.134-2.189h-2.706
					c-2.761,0-5,2.238-5,5v5.309l-3.025-7.237c-0.778-1.86-2.597-3.071-4.613-3.071h-4.29c-0.975,0-1.878,0.291-2.647,0.773
					c-0.769-0.482-1.672-0.773-2.647-0.773h-2.705c-0.564,0-1.097,0.114-1.603,0.286c-0.506-0.172-1.039-0.286-1.603-0.286h-18.011
					c-1.129,0-2.158,0.388-2.995,1.019c-1.886-0.9-4.338-1.39-7.554-1.39c-3.823,0-6.696,0.598-8.792,1.928
					c-0.911-0.955-2.188-1.557-3.612-1.557h-14.997c-0.458,0-0.892,0.081-1.313,0.196c-0.421-0.115-0.855-0.196-1.313-0.196h-18.011
					c-2.761,0-5,2.238-5,5v3.246c0,2.762,2.239,5,5,5h2.653v25.327c0,2.762,2.239,5,5,5h2.705c2.761,0,5-2.238,5-5v-25.327h0.278
					v25.327c0,2.762,2.239,5,5,5h14.919c1.434,0,2.718-0.611,3.629-1.578c2.565,1.608,5.795,1.949,8.815,1.949
					c7.904,0,12.046-2.977,13.24-9.751v4.38c0,2.762,2.239,5,5,5h2.705c2.761,0,5-2.238,5-5v-25.327h0.858v25.327
					c0,2.762,2.239,5,5,5h2.705c0.975,0,1.878-0.29,2.647-0.773c0.769,0.483,1.672,0.773,2.647,0.773h2.706c2.761,0,5-2.238,5-5
					v-5.309l3.025,7.237c0.778,1.86,2.597,3.071,4.613,3.071h4.29c1.719,0,3.234-0.868,4.134-2.189
					c2.355,1.758,5.639,2.561,10.048,2.561c6.926,0,14.314-1.11,14.314-14.367v-7.512c0-1.398-0.574-2.663-1.5-3.571
					c0.926-0.907,1.5-2.172,1.5-3.57v-3.385C444.719,516.652,434.319,516.652,430.404,516.652z"/>
				<path class="st7" d="M1035.651,470.388h-14.997c-0.856,0-1.65,0.235-2.355,0.615c-0.705-0.38-1.499-0.615-2.355-0.615h-4.522
					c-2.232,0-4.194,1.48-4.808,3.627l-3.695,12.936l-3.695-12.936c-0.613-2.147-2.575-3.627-4.808-3.627h-4.522
					c-0.976,0-1.878,0.29-2.646,0.773c-0.77-0.483-1.672-0.773-2.647-0.773h-2.705c-0.564,0-1.097,0.114-1.603,0.286
					c-0.506-0.172-1.039-0.286-1.604-0.286h-18.011c-0.457,0-0.892,0.081-1.313,0.196c-0.421-0.115-0.855-0.196-1.313-0.196h-2.706
					c-2.762,0-5,2.238-5,5v5.309l-3.025-7.237c-0.778-1.86-2.597-3.071-4.613-3.071h-4.29c-0.856,0-1.651,0.235-2.356,0.615
					c-0.704-0.38-1.498-0.615-2.355-0.615H931c-2.762,0-5,2.238-5,5v25.649c-0.356,0.028-0.831,0.049-1.455,0.049
					c-0.585,0-1.035-0.019-1.377-0.045v-25.653c0-2.762-2.238-5-5-5h-2.706c-1.688,0-3.173,0.842-4.078,2.122
					c-1.71-1.288-4.088-2.122-7.398-2.122h-11.44c-2.762,0-5,2.238-5,5v33.573c0,2.762,2.238,5,5,5h2.706c2.762,0,5-2.238,5-5
					v-8.494h2.034c0.099,0,0.19,0.001,0.276,0.003c0.011,0.229,0.019,0.505,0.019,0.84v7.651c0,2.762,2.238,5,5,5h2.706
					c1.803,0,3.369-0.963,4.249-2.394c2.295,1.868,5.592,2.765,10.01,2.765c3.39,0,7.034-0.424,9.778-2.512
					c0.904,1.292,2.397,2.141,4.094,2.141h2.706c2.762,0,5-2.238,5-5v-5.309l3.025,7.237c0.778,1.86,2.597,3.071,4.613,3.071h4.29
					c2.762,0,5-2.238,5-5v-25.327h0.278v25.327c0,2.762,2.238,5,5,5h2.705c2.762,0,5-2.238,5-5v-25.327h0.858v25.327
					c0,2.762,2.238,5,5,5h2.705c0.976,0,1.878-0.29,2.647-0.773c0.769,0.483,1.671,0.773,2.646,0.773h2.706
					c1.921,0,3.588-1.083,4.426-2.671c0.852,1.618,2.542,2.671,4.425,2.671h2.938c1.883,0,3.573-1.053,4.425-2.671
					c0.838,1.588,2.505,2.671,4.426,2.671h2.706c0.856,0,1.65-0.235,2.355-0.615c0.705,0.38,1.499,0.615,2.355,0.615h14.919
					c2.762,0,5-2.238,5-5v-3.246c0-2.762-2.238-5-5-5h-7.213v-2.521h6.672c2.762,0,5-2.238,5-5v-3.246c0-2.762-2.238-5-5-5h-6.672
					v-1.314h7.291c2.762,0,5-2.238,5-5v-3.246C1040.651,472.626,1038.413,470.388,1035.651,470.388z"/>
				<path class="st7" d="M1184.568,481.927c0-11.91-10.399-11.91-14.314-11.91c-4.409,0-7.693,0.803-10.048,2.561
					c-0.899-1.321-2.415-2.189-4.134-2.189h-2.706c-2.762,0-5,2.238-5,5v5.309l-3.025-7.237c-0.778-1.86-2.597-3.071-4.613-3.071
					h-4.29c-0.976,0-1.878,0.29-2.646,0.773c-0.77-0.483-1.672-0.773-2.647-0.773h-2.705c-0.564,0-1.097,0.114-1.603,0.286
					c-0.506-0.172-1.039-0.286-1.604-0.286h-18.011c-1.129,0-2.159,0.388-2.995,1.019c-1.887-0.9-4.338-1.39-7.554-1.39
					c-3.823,0-6.696,0.597-8.792,1.928c-0.911-0.955-2.188-1.557-3.612-1.557h-14.997c-0.457,0-0.893,0.081-1.313,0.196
					c-0.422-0.115-0.855-0.196-1.313-0.196h-18.011c-2.762,0-5,2.238-5,5v3.246c0,2.762,2.238,5,5,5h2.653v25.327
					c0,2.762,2.238,5,5,5h2.705c2.762,0,5-2.238,5-5v-25.327h0.278v25.327c0,2.762,2.238,5,5,5h14.919
					c1.435,0,2.718-0.611,3.63-1.578c2.565,1.608,5.795,1.949,8.814,1.949c7.904,0,12.046-2.977,13.24-9.75v4.379
					c0,2.762,2.238,5,5,5h2.705c2.762,0,5-2.238,5-5v-25.327h0.858v25.327c0,2.762,2.238,5,5,5h2.705
					c0.976,0,1.878-0.29,2.647-0.773c0.769,0.483,1.671,0.773,2.646,0.773h2.706c2.762,0,5-2.238,5-5v-5.309l3.025,7.237
					c0.778,1.86,2.597,3.071,4.613,3.071h4.29c1.719,0,3.234-0.868,4.134-2.189c2.354,1.758,5.639,2.561,10.048,2.561
					c6.926,0,14.314-1.11,14.314-14.367v-7.512c0-1.398-0.574-2.663-1.5-3.571c0.926-0.907,1.5-2.172,1.5-3.57V481.927z"/>
			</g>
			<g>
				<g>
					<g>
						<path class="st1" d="M6.358,416.111h2.705v25.969c0,3.616,1.43,4.729,6.377,4.729c5.025,0,6.455-1.113,6.455-4.729v-25.969
							h2.706v24.994c0,7.188-2.512,8.95-9.16,8.95c-6.532,0-9.083-1.763-9.083-8.95V416.111z"/>
						<path class="st1" d="M29.314,416.111h4.29l12.562,30.049h0.077v-30.049h2.706v33.573h-4.29l-12.562-30.049h-0.078v30.049
							h-2.705V416.111z"/>
						<path class="st1" d="M54.24,416.111h2.706v33.573H54.24V416.111z"/>
						<path class="st1" d="M67.805,419.357h-7.653v-3.246h18.011v3.246h-7.653v30.327h-2.706V419.357z"/>
						<path class="st1" d="M97.099,419.357h-7.653v-3.246h18.011v3.246h-7.653v30.327h-2.706V419.357z"/>
						<path class="st1" d="M110.083,416.111h14.996v3.246h-12.291v11.314h11.673v3.246h-11.673v12.521h12.214v3.246h-14.919V416.111
							z"/>
						<path class="st1" d="M128.749,439.158h2.474v1.947c0,5.009,0.928,5.704,6.184,5.704s5.952-0.324,5.952-6.678
							c0-4.266,0-5.518-5.566-6.074l-2.86-0.278c-4.754-0.464-5.875-2.458-5.875-8.857c0-8.161,2.087-9.182,8.426-9.182
							c6.803,0,8.232,1.67,8.387,9.46h-2.474v-0.742c0-4.405-1.275-5.472-5.914-5.472c-5.295,0-5.72,0.975-5.72,5.936
							c0,4.776,0.696,5.611,5.875,6.028c6.918,0.557,8.426,1.484,8.426,9.646c0,7.93-2.319,9.46-8.619,9.46
							c-6.416,0-8.696-1.53-8.696-8.301V439.158z"/>
						<path class="st1" d="M155.686,419.357h-7.653v-3.246h18.011v3.246h-7.653v30.327h-2.706V419.357z"/>
						<path class="st1" d="M169.25,416.111h2.706v33.573h-2.706V416.111z"/>
						<path class="st1" d="M177.25,416.111h4.29l12.562,30.049h0.077v-30.049h2.706v33.573h-4.29l-12.562-30.049h-0.078v30.049
							h-2.705V416.111z"/>
						<path class="st1" d="M210.408,433.176h9.972v7.512c0,8.996-3.285,9.367-9.314,9.367c-7.344,0-9.856-1.67-9.856-11.5v-11.314
							c0-9.831,2.512-11.501,9.856-11.501c5.488,0,9.314,0.557,9.314,6.91v3.385h-2.705v-1.206c0-5.146-0.928-5.843-6.609-5.843
							c-6.339,0-7.15,1.021-7.15,8.44v10.943c0,7.419,0.812,8.439,7.15,8.439c5.373,0,6.609-0.047,6.609-7.049v-3.339h-7.267
							V433.176z"/>
					</g>
				</g>
				<g>
					<g>
						<path class="st1" d="M57.668,546.971c0,7.28-1.894,8.996-8.657,8.996c-7.382,0-9.895-1.67-9.895-11.5v-11.314
							c0-9.831,2.513-11.501,9.895-11.501c6.184,0,8.657,0.975,8.657,8.765v2.411h-2.474v-2.18c0-5.239-1.43-5.75-6.184-5.75
							c-6.377,0-7.189,1.021-7.189,8.439v10.944c0,7.419,0.813,8.439,7.189,8.439c5.643,0,6.184-1.484,6.184-6.074v-2.227h2.474
							V546.971z"/>
						<path class="st1" d="M61.298,533.153c0-9.831,2.513-11.501,9.856-11.501s9.855,1.67,9.855,11.501v11.314
							c0,9.83-2.512,11.5-9.855,11.5s-9.856-1.67-9.856-11.5V533.153z M78.305,533.337c0-7.419-0.812-8.439-7.15-8.439
							s-7.15,1.021-7.15,8.439v10.944c0,7.419,0.812,8.439,7.15,8.439s7.15-1.021,7.15-8.439V533.337z"/>
						<path class="st1" d="M85.336,522.023h4.29l12.562,30.049h0.077v-30.049h2.706v33.573h-4.29l-12.562-30.049h-0.077v30.049
							h-2.706V522.023z"/>
						<path class="st1" d="M109.683,522.023h14.494v3.246h-11.788v11.778h11.324v3.246h-11.324v15.303h-2.706V522.023z"/>
						<path class="st1" d="M128.156,522.023h2.705v33.573h-2.705V522.023z"/>
						<path class="st1" d="M144.968,539.088h9.972v7.512c0,8.996-3.285,9.367-9.314,9.367c-7.344,0-9.856-1.67-9.856-11.5v-11.314
							c0-9.831,2.513-11.501,9.856-11.501c5.488,0,9.314,0.557,9.314,6.91v3.385h-2.705v-1.206c0-5.146-0.928-5.843-6.609-5.843
							c-6.339,0-7.15,1.021-7.15,8.439v10.944c0,7.419,0.812,8.439,7.15,8.439c5.372,0,6.609-0.047,6.609-7.049v-3.339h-7.267
							V539.088z"/>
						<path class="st1" d="M159.071,522.023h2.706v25.969c0,3.616,1.43,4.729,6.377,4.729c5.024,0,6.455-1.113,6.455-4.729v-25.969
							h2.705v24.994c0,7.188-2.512,8.95-9.16,8.95c-6.532,0-9.083-1.763-9.083-8.95V522.023z"/>
						<path class="st1" d="M182.027,522.023h11.44c4.909,0,6.765,2.041,6.765,9.507c0,5.796-1.005,8.114-3.557,8.903v0.093
							c2.203,0.741,3.093,2.735,3.093,5.889v9.182h-2.706v-7.651c0-4.451-1.043-5.843-5.295-5.843h-7.034v13.494h-2.706V522.023z
							 M184.733,538.856h8.773c2.821,0,4.02-2.133,4.02-6.771c0-6.306-0.695-6.816-4.87-6.816h-7.923V538.856z"/>
						<path class="st1" d="M219.709,548.501H207.65l-1.816,7.095h-2.822l8.774-33.573h3.787l8.773,33.573h-2.821L219.709,548.501z
							 M213.873,525.269h-0.387l-4.986,19.986h10.358L213.873,525.269z"/>
						<path class="st1" d="M230.567,525.269h-7.653v-3.246h18.011v3.246h-7.652v30.327h-2.705V525.269z"/>
						<path class="st1" d="M244.131,522.023h2.705v33.573h-2.705V522.023z"/>
						<path class="st1" d="M251.743,533.153c0-9.831,2.513-11.501,9.856-11.501s9.855,1.67,9.855,11.501v11.314
							c0,9.83-2.512,11.5-9.855,11.5s-9.856-1.67-9.856-11.5V533.153z M268.75,533.337c0-7.419-0.812-8.439-7.15-8.439
							s-7.15,1.021-7.15,8.439v10.944c0,7.419,0.812,8.439,7.15,8.439s7.15-1.021,7.15-8.439V533.337z"/>
						<path class="st1" d="M275.781,522.023h4.29l12.562,30.049h0.077v-30.049h2.706v33.573h-4.29l-12.562-30.049h-0.077v30.049
							h-2.706V522.023z"/>
						<path class="st1" d="M316.438,525.269h-7.653v-3.246h18.011v3.246h-7.652v30.327h-2.705V525.269z"/>
						<path class="st1" d="M329.422,522.023h14.997v3.246h-12.291v11.314H343.8v3.246h-11.672v12.521h12.213v3.246h-14.919V522.023z
							"/>
						<path class="st1" d="M348.088,545.07h2.474v1.947c0,5.009,0.928,5.704,6.185,5.704s5.952-0.324,5.952-6.678
							c0-4.266,0-5.518-5.565-6.074l-2.86-0.278c-4.754-0.464-5.875-2.458-5.875-8.857c0-8.161,2.087-9.182,8.426-9.182
							c6.803,0,8.232,1.67,8.388,9.46h-2.474v-0.741c0-4.406-1.276-5.473-5.914-5.473c-5.295,0-5.72,0.975-5.72,5.936
							c0,4.776,0.695,5.611,5.874,6.028c6.919,0.557,8.426,1.484,8.426,9.646c0,7.93-2.318,9.46-8.618,9.46
							c-6.416,0-8.697-1.53-8.697-8.301V545.07z"/>
						<path class="st1" d="M375.025,525.269h-7.653v-3.246h18.011v3.246h-7.652v30.327h-2.705V525.269z"/>
						<path class="st1" d="M388.589,522.023h2.705v33.573h-2.705V522.023z"/>
						<path class="st1" d="M396.588,522.023h4.29l12.562,30.049h0.077v-30.049h2.706v33.573h-4.29l-12.562-30.049h-0.077v30.049
							h-2.706V522.023z"/>
						<path class="st1" d="M429.747,539.088h9.972v7.512c0,8.996-3.285,9.367-9.314,9.367c-7.344,0-9.856-1.67-9.856-11.5v-11.314
							c0-9.831,2.513-11.501,9.856-11.501c5.488,0,9.314,0.557,9.314,6.91v3.385h-2.705v-1.206c0-5.146-0.928-5.843-6.609-5.843
							c-6.339,0-7.15,1.021-7.15,8.439v10.944c0,7.419,0.812,8.439,7.15,8.439c5.372,0,6.609-0.047,6.609-7.049v-3.339h-7.267
							V539.088z"/>
					</g>
				</g>
				<g>
					<g>
						<path class="st1" d="M892.545,475.388h11.44c4.909,0,6.765,2.041,6.765,9.507c0,5.796-1.005,8.114-3.557,8.903v0.093
							c2.203,0.741,3.093,2.735,3.093,5.889v9.182h-2.706v-7.651c0-4.451-1.043-5.843-5.295-5.843h-7.034v13.494h-2.706V475.388z
							 M895.251,492.221h8.773c2.821,0,4.02-2.133,4.02-6.771c0-6.306-0.695-6.816-4.87-6.816h-7.923V492.221z"/>
						<path class="st1" d="M915.462,475.388h2.706v25.969c0,3.616,1.43,4.729,6.377,4.729c5.024,0,6.455-1.113,6.455-4.729v-25.969
							h2.705v24.994c0,7.188-2.512,8.95-9.16,8.95c-6.532,0-9.083-1.763-9.083-8.95V475.388z"/>
						<path class="st1" d="M938.417,475.388h4.29l12.562,30.049h0.077v-30.049h2.706v33.573h-4.29L941.2,478.913h-0.077v30.049
							h-2.706V475.388z"/>
						<path class="st1" d="M968.33,478.634h-7.653v-3.246h18.011v3.246h-7.652v30.327h-2.705V478.634z"/>
						<path class="st1" d="M981.894,475.388h2.705v33.573h-2.705V475.388z"/>
						<path class="st1" d="M989.893,475.388h4.522l8.465,29.632h0.077l8.464-29.632h4.522v33.573h-2.706v-30.049h-0.077
							l-8.773,30.049h-2.938l-8.773-30.049h-0.077v30.049h-2.706V475.388z"/>
						<path class="st1" d="M1020.654,475.388h14.997v3.246h-12.291v11.314h11.672v3.246h-11.672v12.521h12.213v3.246h-14.919
							V475.388z"/>
						<path class="st1" d="M1056.288,478.634h-7.653v-3.246h18.011v3.246h-7.652v30.327h-2.705V478.634z"/>
						<path class="st1" d="M1069.271,475.388h14.997v3.246h-12.291v11.314h11.672v3.246h-11.672v12.521h12.213v3.246h-14.919
							V475.388z"/>
						<path class="st1" d="M1087.938,498.435h2.474v1.947c0,5.009,0.928,5.704,6.185,5.704s5.952-0.324,5.952-6.678
							c0-4.266,0-5.518-5.565-6.074l-2.86-0.278c-4.754-0.464-5.875-2.458-5.875-8.857c0-8.161,2.087-9.182,8.426-9.182
							c6.803,0,8.232,1.67,8.388,9.46h-2.474v-0.742c0-4.405-1.276-5.472-5.914-5.472c-5.295,0-5.72,0.975-5.72,5.936
							c0,4.776,0.695,5.611,5.874,6.028c6.919,0.557,8.426,1.484,8.426,9.646c0,7.93-2.318,9.46-8.618,9.46
							c-6.416,0-8.697-1.53-8.697-8.301V498.435z"/>
						<path class="st1" d="M1114.875,478.634h-7.653v-3.246h18.011v3.246h-7.652v30.327h-2.705V478.634z"/>
						<path class="st1" d="M1128.438,475.388h2.705v33.573h-2.705V475.388z"/>
						<path class="st1" d="M1136.438,475.388h4.29l12.562,30.049h0.077v-30.049h2.706v33.573h-4.29l-12.562-30.049h-0.077v30.049
							h-2.706V475.388z"/>
						<path class="st1" d="M1169.597,492.454h9.972v7.512c0,8.996-3.285,9.367-9.314,9.367c-7.344,0-9.856-1.67-9.856-11.5v-11.314
							c0-9.831,2.513-11.501,9.856-11.501c5.488,0,9.314,0.557,9.314,6.91v3.385h-2.705v-1.206c0-5.146-0.928-5.843-6.609-5.843
							c-6.339,0-7.15,1.021-7.15,8.44v10.943c0,7.419,0.812,8.439,7.15,8.439c5.372,0,6.609-0.047,6.609-7.049v-3.339h-7.267
							V492.454z"/>
					</g>
				</g>
			</g>
		</g>
	</g>
</g>
</svg>
